<svg xmlns="http://www.w3.org/2000/svg" viewBox="0 0 24 24" fill="currentColor" class="w-6 h-6">
  <path d="M17.86 15.82c.38-.38.38-1 0-1.38l-2.83-2.83c-.38-.38-1-.38-1.38 0s-.38 1 0 1.38l2.83 2.83c.38.38 1 .38 1.38 0zM6.14 8.18c-.38-.38-1-.38-1.38 0s-.38 1 0 1.38l2.83 2.83c.38.38 1 .38 1.38 0s.38-1 0-1.38L6.14 8.18zM12 2C6.48 2 2 6.48 2 12s4.48 10 10 10 10-4.48 10-10S17.52 2 12 2zm0 18c-4.41 0-8-3.59-8-8s3.59-8 8-8 8 3.59 8 8-3.59 8-8 8z"/>
  <path d="M12.5 7H11v6l5.25 3.15.75-1.23-4.5-2.67z"/>
</svg>
